<?xml version="1.0" encoding="UTF-8" standalone="no"?>
<!-- Created with Inkscape (http://www.inkscape.org/) -->

<svg
   xmlns:osb="http://www.openswatchbook.org/uri/2009/osb"
   xmlns:dc="http://purl.org/dc/elements/1.1/"
   xmlns:cc="http://creativecommons.org/ns#"
   xmlns:rdf="http://www.w3.org/1999/02/22-rdf-syntax-ns#"
   xmlns:svg="http://www.w3.org/2000/svg"
   xmlns="http://www.w3.org/2000/svg"
   xmlns:xlink="http://www.w3.org/1999/xlink"
   xmlns:sodipodi="http://sodipodi.sourceforge.net/DTD/sodipodi-0.dtd"
   xmlns:inkscape="http://www.inkscape.org/namespaces/inkscape"
   width="48px"
   height="48px"
   id="svg2993"
   version="1.1"
   inkscape:version="0.48.4 r9939"
   sodipodi:docname="werfflogo.svg">
  <defs
     id="defs2995">
    <linearGradient
       inkscape:collect="always"
       id="linearGradient3848">
      <stop
         style="stop-color:#000000;stop-opacity:1;"
         offset="0"
         id="stop3850" />
      <stop
         style="stop-color:#000000;stop-opacity:0;"
         offset="1"
         id="stop3852" />
    </linearGradient>
    <linearGradient
       id="linearGradient3842"
       osb:paint="solid">
      <stop
         style="stop-color:#000000;stop-opacity:1;"
         offset="0"
         id="stop3844" />
    </linearGradient>
    <linearGradient
       id="linearGradient3836"
       osb:paint="solid">
      <stop
         style="stop-color:#000000;stop-opacity:1;"
         offset="0"
         id="stop3838" />
    </linearGradient>
    <linearGradient
       id="linearGradient3826"
       osb:paint="solid">
      <stop
         style="stop-color:#000000;stop-opacity:1;"
         offset="0"
         id="stop3828" />
    </linearGradient>
    <linearGradient
       inkscape:collect="always"
       xlink:href="#linearGradient3826"
       id="linearGradient3830"
       x1="3.9680816"
       y1="19.114861"
       x2="44.034796"
       y2="19.114861"
       gradientUnits="userSpaceOnUse" />
    <linearGradient
       inkscape:collect="always"
       xlink:href="#linearGradient3848"
       id="linearGradient3858"
       x1="-1.0319184"
       y1="19.114861"
       x2="49.034798"
       y2="19.114861"
       gradientUnits="userSpaceOnUse" />
  </defs>
  <sodipodi:namedview
     id="base"
     pagecolor="#ffffff"
     bordercolor="#666666"
     borderopacity="1.0"
     inkscape:pageopacity="0.0"
     inkscape:pageshadow="2"
     inkscape:zoom="7"
     inkscape:cx="23.537723"
     inkscape:cy="12.571429"
     inkscape:current-layer="layer1"
     showgrid="true"
     inkscape:grid-bbox="true"
     inkscape:document-units="px"
     inkscape:window-width="960"
     inkscape:window-height="1018"
     inkscape:window-x="0"
     inkscape:window-y="27"
     inkscape:window-maximized="0" />
  <metadata
     id="metadata2998">
    <rdf:RDF>
      <cc:Work
         rdf:about="">
        <dc:format>image/svg+xml</dc:format>
        <dc:type
           rdf:resource="http://purl.org/dc/dcmitype/StillImage" />
        <dc:title />
      </cc:Work>
    </rdf:RDF>
  </metadata>
  <g
     id="layer1"
     inkscape:label="Layer 1"
     inkscape:groupmode="layer">
    <g
       id="g3066"
       transform="matrix(1.0000209,0,0,1,4.0000455,3.7609161e-4)">
      <path
         style="fill:#d0d0d1"
         d="m 16.389776,35.91441 c -0.344113,-0.04157 -0.562901,-0.174216 -0.699893,-0.424338 -0.06799,-0.124132 -0.03092,-0.326394 0.101863,-0.555805 0.0644,-0.111273 0.112161,-0.206017 0.106127,-0.210543 -0.006,-0.0045 -0.08832,0.01503 -0.182857,0.04346 -0.208912,0.06283 -0.696506,0.09003 -0.865206,0.04828 -0.157981,-0.0391 -0.375056,-0.185879 -0.444502,-0.300548 -0.102181,-0.16872 -0.06103,-0.494356 0.09069,-0.717615 0.04601,-0.0677 0.04536,-0.06896 -0.02796,-0.05422 -0.04128,0.0083 -0.212361,0.03848 -0.380171,0.06706 -0.298399,0.05083 -0.309084,0.05103 -0.485847,0.0093 -0.208813,-0.04926 -0.365096,-0.147177 -0.479306,-0.300303 -0.142555,-0.191127 -0.139111,-0.305949 0.01886,-0.628993 0.09057,-0.185218 0.09135,-0.184801 -0.204985,-0.11002 -0.124759,0.03148 -0.288087,0.05217 -0.41741,0.05286 -0.181461,9.71e-4 -0.234896,-0.0093 -0.366309,-0.07021 -0.180091,-0.08351 -0.347497,-0.238269 -0.394221,-0.36445 -0.04697,-0.126851 -0.0412,-0.380281 0.01215,-0.533497 0.09352,-0.268574 0.407175,-0.601586 0.70524,-0.748771 0.505924,-0.249827 1.142471,-0.211465 1.530463,0.09223 0.187404,0.14669 0.254614,0.294674 0.255622,0.562837 l 7.7e-4,0.204864 0.256733,0.0021 c 0.323613,0.0026 0.607975,0.09076 0.795475,0.246558 0.196311,0.163119 0.254852,0.28767 0.255266,0.543097 l 3.55e-4,0.219033 0.308452,0.0093 c 0.284545,0.0086 0.322722,0.01574 0.492553,0.09247 0.189054,0.08541 0.316788,0.187507 0.418857,0.334774 0.0687,0.09912 0.101729,0.448052 0.05455,0.57621 l -0.03098,0.08416 0.312211,-0.0094 c 0.280403,-0.0084 0.329971,-0.0033 0.486535,0.05045 0.226286,0.0777 0.403147,0.199309 0.520072,0.357607 0.0879,0.119002 0.09387,0.143839 0.09387,0.39066 0,0.243375 -0.0071,0.2741 -0.09271,0.400854 -0.134413,0.199016 -0.391411,0.385121 -0.684018,0.495332 -0.331829,0.124984 -0.751748,0.182495 -1.060328,0.14522 z m 3.530352,-0.257447 c -0.132007,-0.03151 -0.21339,-0.07966 -0.468689,-0.277256 l -0.308944,-0.23912 -0.0016,-0.282176 c -0.0018,-0.312005 -0.05145,-0.463909 -0.237875,-0.727292 -0.190964,-0.2698 -0.620147,-0.552761 -0.963723,-0.635386 -0.168651,-0.04056 -0.199383,-0.06126 -0.225576,-0.151941 -0.03489,-0.120808 -0.22068,-0.376268 -0.374514,-0.514961 -0.171968,-0.155044 -0.465281,-0.323082 -0.660715,-0.378521 -0.217532,-0.06171 -0.282526,-0.10102 -0.305696,-0.184899 -0.03358,-0.121567 -0.228969,-0.371403 -0.391949,-0.501174 -0.191899,-0.152799 -0.489175,-0.305212 -0.692801,-0.3552 -0.142641,-0.03502 -0.163053,-0.04897 -0.195842,-0.133913 -0.08211,-0.212713 -0.364624,-0.52798 -0.581922,-0.649398 -0.06452,-0.03605 -0.1245,-0.07231 -0.133285,-0.08057 -0.04451,-0.04184 -0.441595,-0.170353 -0.63099,-0.204213 -0.298509,-0.05337 -0.795622,-0.0525 -1.094249,0.0019 -0.67977,0.123851 -1.198836,0.451843 -1.48614,0.939076 -0.08653,0.146747 -0.0146,0.149736 -0.670409,-0.02786 C 10.266774,31.192199 10.061902,31.137738 10.039937,31.13304 10.008301,31.126282 10,30.580951 10,28.509371 c 0,-2.481396 0.0029,-2.614229 0.05591,-2.597383 0.0519,0.01648 0.699858,0.186564 1.573482,0.413025 0.863368,0.223802 0.777398,0.209468 1.246006,0.207761 0.522949,-0.0019 0.5894,-0.01928 1.296406,-0.339039 0.655252,-0.296349 1.418202,-0.602929 1.81861,-0.730779 0.443789,-0.141702 0.637197,-0.193777 0.969078,-0.260921 0.34631,-0.07006 0.397726,-0.0744 0.724213,-0.06113 0.511534,0.0208 0.959623,0.130885 1.3502,0.331702 0.158257,0.08137 0.297906,0.188387 0.277747,0.21285 -0.0077,0.0093 -0.283688,0.127862 -0.613306,0.263373 -0.849618,0.34929 -1.754899,0.754718 -2.117907,0.948502 -0.151341,0.08079 -0.428048,0.296933 -0.485997,0.379625 -0.01855,0.02647 -0.0447,0.05357 -0.05811,0.06023 -0.01341,0.0067 -0.06959,0.09745 -0.124833,0.201745 -0.129477,0.244455 -0.176643,0.521219 -0.13088,0.767988 0.05131,0.276655 0.291902,0.638302 0.539552,0.811017 0.05333,0.03719 0.132284,0.09207 0.175462,0.121959 0.127066,0.08795 0.419584,0.20194 0.685087,0.266958 0.368112,0.09015 0.682672,0.08657 1.062608,-0.01209 0.160881,-0.04178 0.34519,-0.0959 0.409577,-0.120275 0.06439,-0.02438 0.203327,-0.07348 0.308758,-0.109129 0.105432,-0.03565 0.277956,-0.09497 0.383387,-0.131832 0.105431,-0.03686 0.292332,-0.101448 0.415335,-0.143523 0.576756,-0.197289 0.708462,-0.243213 0.782748,-0.272931 0.223547,-0.08943 0.729557,-0.12192 0.975797,-0.06265 0.31037,0.0747 0.471652,0.184916 2.462125,1.682525 2.200651,1.655743 2.136711,1.598784 2.133162,1.900272 -0.0024,0.203812 -0.08173,0.336009 -0.291241,0.485313 -0.243431,0.173478 -0.640348,0.219473 -0.978771,0.113422 -0.07174,-0.02248 -0.280363,-0.156499 -0.509962,-0.327597 -0.213705,-0.159252 -0.50342,-0.366278 -0.643811,-0.460056 -0.140391,-0.09378 -0.269784,-0.181905 -0.28754,-0.195835 -0.03381,-0.02653 -0.225356,-0.132221 -0.2985,-0.164709 -0.07835,-0.0348 0.06016,0.134898 0.262664,0.321827 0.213254,0.196847 0.543386,0.476646 0.848162,0.71885 0.301594,0.239673 0.36291,0.330576 0.379108,0.562037 0.01146,0.163729 0.0022,0.215087 -0.05795,0.319873 -0.169972,0.296333 -0.638109,0.448036 -1.058234,0.34293 -0.209513,-0.05242 -0.298013,-0.103227 -0.926986,-0.532216 -0.361491,-0.246554 -1.095872,-0.70718 -1.247252,-0.782313 -0.137078,-0.06804 -0.185363,-0.0601 -0.112036,0.01842 0.07803,0.08356 0.582493,0.464182 1.012123,0.763669 0.475359,0.331363 0.544481,0.388573 0.63984,0.529578 0.158439,0.234281 0.05744,0.585263 -0.223132,0.775369 -0.249825,0.169277 -0.697302,0.207871 -1.001888,0.08641 -0.08804,-0.03511 -0.410182,-0.253211 -0.795519,-0.538598 -0.629584,-0.46628 -1.012415,-0.730463 -1.058522,-0.730463 -0.05884,0 0.268438,0.329432 0.571325,0.57508 0.678467,0.550251 0.696277,0.568024 0.75901,0.757406 0.05553,0.167636 0.03267,0.313309 -0.07545,0.480816 -0.177355,0.274776 -0.657583,0.406034 -1.099527,0.30053 z m 7.492013,-4.413375 c -0.198693,-0.0314 -0.436559,-0.11189 -0.576616,-0.195106 -0.146027,-0.08676 -1.259038,-0.901721 -3.176372,-2.325773 -0.650713,-0.483301 -1.223509,-0.902421 -1.27288,-0.931378 -0.112896,-0.06622 -0.503974,-0.16673 -0.648707,-0.16673 -0.06014,0 -0.220505,0.02228 -0.356364,0.0495 -0.229263,0.04594 -0.399532,0.107587 -1.636793,0.592579 -0.999229,0.391685 -1.605736,0.606711 -1.779708,0.630961 -0.558849,0.0779 -1.112916,-0.157105 -1.345342,-0.570614 -0.141834,-0.252339 -0.06172,-0.576758 0.194577,-0.787977 0.162151,-0.133629 0.37744,-0.244361 1.045489,-0.537733 0.02636,-0.01158 0.162939,-0.07216 0.303514,-0.134641 0.232185,-0.103192 0.755749,-0.327935 1.038339,-0.445712 0.0615,-0.02563 0.179436,-0.07531 0.262076,-0.110382 0.08264,-0.03508 0.56427,-0.235524 1.070288,-0.445435 0.506017,-0.209911 1.035048,-0.431004 1.175623,-0.491317 0.140575,-0.06031 0.363419,-0.147353 0.495208,-0.193423 0.228199,-0.07977 0.256394,-0.08376 0.591726,-0.08376 0.331913,0 0.364079,0.0044 0.560789,0.07705 0.189382,0.06992 0.620324,0.294504 0.780392,0.406691 0.374044,0.262156 1.992224,1.260317 2.102474,1.296894 0.218202,0.07239 0.364689,0.08205 0.629156,0.04147 0.323417,-0.04962 0.880222,-0.139534 1.421725,-0.229575 0.246006,-0.04091 0.605431,-0.100158 0.798722,-0.131671 0.193291,-0.03151 0.444888,-0.0735 0.559105,-0.0933 0.114218,-0.0198 0.240016,-0.03638 0.279553,-0.03684 L 30,26.426518 l 0,2.275901 0,2.275901 -0.07189,0.01112 c -0.426289,0.06597 -1.038684,0.149416 -1.861022,0.253593 -0.192964,0.02445 -0.502129,0.02471 -0.654952,5.52e-4 z"
         id="path3084"
         inkscape:connector-curvature="0" />
      <path
         style="fill:#b0afb1"
         d="m 16.180235,35.8662 c -0.313894,-0.09058 -0.511118,-0.309192 -0.50692,-0.561887 0.0018,-0.106886 0.03212,-0.198876 0.118292,-0.358565 0.06375,-0.118138 0.110316,-0.218986 0.103486,-0.224108 -0.0068,-0.0051 -0.11038,0.01591 -0.230113,0.04673 -0.164962,0.04247 -0.287922,0.05612 -0.507604,0.05638 -0.267298,3.09e-4 -0.302117,-0.0053 -0.44644,-0.07218 -0.340441,-0.15772 -0.441994,-0.42548 -0.292388,-0.770924 0.04452,-0.1028 0.09097,-0.205979 0.103217,-0.229288 0.01956,-0.03722 0.01202,-0.03946 -0.06188,-0.01839 -0.168636,0.04809 -0.506203,0.09669 -0.667942,0.09618 -0.218803,-6.95e-4 -0.395022,-0.06391 -0.552736,-0.198292 -0.228204,-0.19444 -0.256249,-0.3713 -0.110246,-0.695249 0.06294,-0.13965 0.08113,-0.208169 0.05527,-0.208169 -0.0212,0 -0.146091,0.02251 -0.277527,0.05001 -0.475751,0.09956 -0.816637,0.02472 -1.040825,-0.228518 -0.287215,-0.324433 -0.123605,-0.885754 0.367119,-1.259532 0.406727,-0.309798 0.866494,-0.400481 1.38426,-0.273024 0.179608,0.04421 0.450356,0.2192 0.537595,0.347453 0.08188,0.120374 0.134543,0.402645 0.09793,0.524876 l -0.02835,0.09464 0.25567,-0.0013 c 0.594751,-0.0029 1.000015,0.242852 1.074558,0.651651 0.01467,0.08047 0.01574,0.191073 0.0024,0.245795 -0.01337,0.05472 -0.02041,0.102461 -0.01564,0.106086 0.0048,0.0036 0.1437,0.0095 0.308729,0.01297 0.26229,0.0056 0.321586,0.0152 0.471152,0.07647 0.188725,0.07731 0.382726,0.228258 0.470151,0.365822 0.06752,0.106241 0.09625,0.406456 0.05249,0.548428 l -0.03074,0.09974 0.295288,-0.01321 c 0.284688,-0.01274 0.303568,-0.01035 0.525922,0.06652 0.245085,0.08472 0.37557,0.181241 0.516727,0.382207 0.06505,0.09261 0.07574,0.14164 0.07574,0.347444 0,0.225008 -0.0067,0.249584 -0.109364,0.403101 -0.190978,0.285487 -0.657283,0.541999 -1.114254,0.612946 -0.265476,0.04122 -0.636689,0.03091 -0.822984,-0.02285 z m 3.862142,-0.190524 c -0.213175,-0.03325 -0.306088,-0.08111 -0.615161,-0.316899 l -0.291252,-0.222196 0.02005,-0.155919 c 0.02344,-0.18228 -0.03114,-0.486233 -0.118897,-0.662138 -0.178652,-0.358117 -0.585682,-0.669673 -1.078694,-0.825671 -0.197831,-0.0626 -0.211622,-0.07215 -0.245095,-0.169767 -0.0484,-0.14115 -0.155755,-0.293034 -0.321543,-0.454914 -0.197977,-0.193309 -0.37123,-0.297114 -0.686507,-0.411323 C 16.438079,32.360059 16.428025,32.353395 16.373747,32.23722 16.209234,31.885096 15.869643,31.610774 15.379079,31.433727 15.166653,31.357057 15.11533,31.327774 15.09812,31.273398 15.01064,30.997 14.568429,30.602683 14.184147,30.458414 13.434794,30.177086 12.51997,30.24144 11.829393,30.624059 c -0.21736,0.12043 -0.527969,0.413261 -0.646746,0.609728 -0.05081,0.08404 -0.105237,0.152794 -0.120959,0.152794 -0.01572,0 -0.192742,-0.04422 -0.393378,-0.09827 -0.200635,-0.05405 -0.433082,-0.11377 -0.516549,-0.132717 L 10,31.121147 l 0,-2.601706 0,-2.601705 0.07188,0.01242 c 0.03954,0.0068 0.301917,0.07392 0.583067,0.149085 1.627564,0.435137 1.68886,0.448415 2.128143,0.461001 0.353394,0.01013 0.430305,0.0051 0.625902,-0.04124 0.12265,-0.02903 0.275196,-0.07609 0.338991,-0.104567 0.0638,-0.02848 0.285335,-0.12887 0.492309,-0.22309 1.036158,-0.471685 2.033823,-0.826106 2.703226,-0.960321 0.575177,-0.115322 1.214674,-0.07018 1.753852,0.123817 0.319779,0.115054 0.660844,0.317671 0.59862,0.355622 -0.0082,0.005 -0.222059,0.09445 -0.475321,0.198833 -0.606418,0.249928 -0.723324,0.299558 -1.280738,0.543717 -0.613107,0.268554 -1.054403,0.496308 -1.229933,0.634773 -0.570731,0.450216 -0.717376,1.104972 -0.368802,1.646665 0.247648,0.384852 0.645171,0.648325 1.185344,0.785631 0.548605,0.13945 0.880457,0.107536 1.627449,-0.156509 0.149361,-0.05279 0.429712,-0.149267 0.623003,-0.214381 0.38578,-0.129957 0.457244,-0.154581 0.926517,-0.319244 0.424116,-0.148818 0.438295,-0.152537 0.678844,-0.178087 0.263871,-0.02803 0.509322,0.0042 0.744502,0.09786 0.267119,0.106334 4.199015,3.058231 4.306686,3.233274 0.185114,0.300941 0.0065,0.695664 -0.384985,0.851019 -0.25521,0.101264 -0.668998,0.09066 -0.881217,-0.02259 -0.05807,-0.03099 -0.288985,-0.190021 -0.51315,-0.35341 -0.707679,-0.515812 -1.131853,-0.789345 -1.17448,-0.757375 -0.0459,0.03443 0.307431,0.385769 0.740477,0.736303 0.679996,0.55043 0.74847,0.625866 0.772579,0.85113 0.02205,0.206033 -0.03435,0.3457 -0.194836,0.482438 -0.176377,0.150281 -0.392511,0.223472 -0.659915,0.223472 -0.277667,0 -0.458787,-0.06649 -0.782747,-0.287347 -0.140576,-0.09584 -0.313099,-0.213428 -0.383387,-0.261315 -0.183713,-0.125164 -0.654313,-0.430985 -0.814254,-0.529145 -0.07516,-0.04613 -0.164392,-0.101877 -0.198297,-0.123891 -0.134416,-0.08727 -0.410332,-0.218691 -0.429291,-0.204472 -0.0362,0.02715 0.301251,0.310446 0.747928,0.627884 0.860406,0.611462 0.915024,0.656718 0.97926,0.811415 0.234136,0.563858 -0.488493,1.048451 -1.207665,0.809859 -0.09704,-0.0322 -0.335846,-0.192529 -0.782897,-0.525642 -0.826857,-0.616119 -1.223013,-0.86227 -1.091797,-0.678386 0.06246,0.08753 0.606745,0.561613 0.961938,0.837867 0.456828,0.355302 0.506157,0.724211 0.137914,1.031392 -0.197267,0.164557 -0.526737,0.241144 -0.832347,0.193484 z m 7.444738,-4.434148 c -0.257594,-0.03382 -0.508698,-0.113669 -0.674083,-0.21435 -0.153014,-0.09315 -0.535526,-0.373323 -3.042447,-2.228456 -1.595772,-1.180879 -1.555986,-1.158345 -2.045345,-1.15843 -0.355322,-7.1e-5 -0.493458,0.03426 -1.103405,0.274133 -0.21022,0.08267 -0.554742,0.218173 -0.765605,0.30111 -1.005246,0.395387 -1.734973,0.656416 -1.900958,0.679989 -0.367752,0.05223 -0.777947,-0.05173 -1.059478,-0.268511 -0.229167,-0.176457 -0.324701,-0.342976 -0.327649,-0.571102 -0.0047,-0.362912 0.227699,-0.578732 0.971791,-0.902501 0.0615,-0.02676 0.320288,-0.140346 0.57508,-0.252413 0.254792,-0.112066 0.59984,-0.263728 0.766773,-0.337024 0.166933,-0.0733 0.5623,-0.240264 0.878594,-0.371037 0.316294,-0.130773 0.632588,-0.26257 0.702876,-0.292881 0.07029,-0.03031 0.19968,-0.0846 0.28754,-0.120635 0.08786,-0.03604 0.410101,-0.169747 0.716094,-0.29713 0.884896,-0.368378 0.945685,-0.38578 1.344609,-0.38493 0.322058,6.86e-4 0.3444,0.0042 0.559105,0.08738 0.260942,0.101113 0.553712,0.267462 1.208747,0.686795 0.260657,0.166864 0.576951,0.367664 0.702875,0.44622 0.125924,0.07856 0.351158,0.222933 0.500519,0.320836 0.491067,0.321884 0.731103,0.361579 1.437699,0.237758 0.369809,-0.0648 0.680721,-0.116923 1.533547,-0.257075 0.254792,-0.04187 0.616715,-0.102371 0.804273,-0.134441 0.187558,-0.03207 0.363676,-0.05831 0.391374,-0.05831 0.04549,0 0.05036,0.219733 0.05036,2.273817 l 0,2.273818 -0.391374,0.05162 c -0.215255,0.02839 -0.448882,0.06186 -0.519169,0.07437 -0.187477,0.03337 -1.057954,0.137748 -1.261981,0.151315 -0.09665,0.0064 -0.249808,0.002 -0.340361,-0.0099 z"
         id="path3082"
         inkscape:connector-curvature="0" />
      <path
         style="fill:#8f8e8f"
         d="m 16.29393,35.892928 c -0.368109,-0.08428 -0.610768,-0.307043 -0.613841,-0.563499 -0.0016,-0.136467 0.03427,-0.238437 0.158763,-0.450933 0.04456,-0.07605 0.07325,-0.144102 0.06376,-0.15122 -0.0095,-0.0071 -0.123011,0.01176 -0.252265,0.04196 -0.306169,0.07152 -0.691723,0.07613 -0.86825,0.01038 -0.264582,-0.09855 -0.435098,-0.295041 -0.436344,-0.50281 -4.16e-4,-0.06935 0.0393,-0.20435 0.09758,-0.331642 0.05405,-0.118072 0.09297,-0.218657 0.08649,-0.223521 -0.0065,-0.0049 -0.104625,0.01289 -0.218088,0.03945 -0.577487,0.135181 -0.932936,0.06459 -1.16405,-0.231189 -0.131138,-0.167827 -0.135557,-0.294548 -0.01968,-0.564328 0.05436,-0.126563 0.09884,-0.235966 0.09884,-0.243118 0,-0.0072 -0.132987,0.01355 -0.295527,0.046 -0.470822,0.09401 -0.729521,0.05767 -0.961727,-0.135102 -0.164501,-0.136563 -0.220174,-0.232501 -0.236947,-0.40832 -0.02522,-0.264319 0.106411,-0.552788 0.378088,-0.828605 0.393548,-0.399544 1.074947,-0.54443 1.60559,-0.341394 0.148243,0.05672 0.380081,0.225764 0.451309,0.32907 0.06808,0.09874 0.114204,0.385193 0.08022,0.498208 -0.01488,0.04949 -0.02092,0.09459 -0.01341,0.100214 0.0075,0.0056 0.139697,0.01214 0.293762,0.01448 0.347339,0.0053 0.567754,0.07285 0.766007,0.234906 0.204528,0.16718 0.24468,0.253869 0.246626,0.532465 l 0.0017,0.239617 0.287857,0 c 0.255262,0 0.308868,0.008 0.47341,0.07051 0.366061,0.13911 0.546184,0.36005 0.548097,0.672298 6.46e-4,0.105431 -0.006,0.229433 -0.0148,0.275559 -0.01503,0.07893 -0.01128,0.08316 0.0639,0.07188 0.04393,-0.0066 0.1877,-0.01198 0.319489,-0.01198 0.193087,0 0.273738,0.01226 0.415335,0.06313 0.226085,0.08122 0.404133,0.214394 0.508267,0.380164 0.06994,0.11133 0.08279,0.165268 0.08279,0.347444 0,0.193034 -0.01075,0.232681 -0.102512,0.377967 -0.142548,0.225704 -0.375041,0.393774 -0.715864,0.5175 -0.148988,0.05409 -0.347653,0.109256 -0.441479,0.122601 -0.195489,0.02781 -0.555387,0.0288 -0.673053,0.0019 z m 3.710723,-0.230643 c -0.220965,-0.04493 -0.299017,-0.08838 -0.608265,-0.33857 l -0.255644,-0.206825 0.01854,-0.148939 c 0.02966,-0.238224 -0.03944,-0.521197 -0.18116,-0.741913 -0.221644,-0.345176 -0.476174,-0.534035 -0.968809,-0.71885 -0.233217,-0.08749 -0.258789,-0.1042 -0.293382,-0.191693 -0.139219,-0.352113 -0.548612,-0.703884 -1.017124,-0.873963 -0.152398,-0.05532 -0.277088,-0.113448 -0.277088,-0.129165 0,-0.06185 -0.225126,-0.369392 -0.356421,-0.486898 -0.198509,-0.177663 -0.503027,-0.352876 -0.725984,-0.417716 -0.185529,-0.05396 -0.194501,-0.06058 -0.257579,-0.190334 -0.277053,-0.569884 -1.004793,-0.933333 -1.870878,-0.934356 -0.465696,-5.51e-4 -0.853463,0.07996 -1.219122,0.253113 -0.360206,0.170574 -0.654225,0.427187 -0.830229,0.724607 -0.04094,0.06919 -0.08652,0.125798 -0.101274,0.125798 -0.01476,0 -0.199618,-0.04766 -0.410804,-0.105907 -0.211185,-0.05825 -0.443702,-0.117969 -0.516703,-0.132713 L 10,31.121156 10,28.522239 c 0,-1.429404 0.0084,-2.598916 0.01877,-2.598916 0.01032,0 0.222386,0.05322 0.471246,0.118264 2.067598,0.540416 2.148058,0.556007 2.616945,0.507095 0.317342,-0.0331 0.52761,-0.09443 0.859239,-0.250588 1.136403,-0.535125 2.387208,-0.981552 3.096611,-1.105216 0.50119,-0.08737 1.188551,-0.02274 1.66172,0.156237 0.237756,0.08993 0.572978,0.276394 0.571741,0.31802 -4.67e-4,0.0157 -0.212528,0.113526 -0.471246,0.217383 -0.893857,0.35882 -2.028906,0.870087 -2.345853,1.056658 -0.220428,0.129755 -0.450355,0.35964 -0.569882,0.569778 -0.344816,0.606217 -0.114208,1.302257 0.573066,1.729676 0.361522,0.224832 0.745648,0.331275 1.201345,0.332898 0.409459,0.0015 0.516686,-0.02728 1.944783,-0.521151 0.59519,-0.205833 1.145563,-0.386215 1.223053,-0.400849 0.07749,-0.01463 0.253851,-0.0217 0.391916,-0.01571 0.474861,0.02062 0.378379,-0.03987 2.662998,1.669562 1.138986,0.852231 2.068462,1.566757 2.107781,1.620338 0.100347,0.136743 0.101729,0.460684 0.0026,0.599041 -0.159435,0.222429 -0.441026,0.351495 -0.770247,0.353041 -0.341714,0.0016 -0.452956,-0.04821 -0.992711,-0.444523 -0.730465,-0.536343 -1.126769,-0.788162 -1.178877,-0.749081 -0.04895,0.03671 0.32987,0.398064 0.977388,0.932304 0.502512,0.414601 0.53226,0.454347 0.53212,0.710953 -9.5e-5,0.163101 -0.01394,0.223123 -0.06953,0.301177 -0.159941,0.224602 -0.491903,0.360099 -0.836438,0.341408 -0.22385,-0.01214 -0.419246,-0.08177 -0.627383,-0.223553 -0.08786,-0.05985 -0.27476,-0.187127 -0.415335,-0.282837 -0.695622,-0.473613 -1.403711,-0.902946 -1.489208,-0.902946 -0.107199,0 0.142705,0.221392 0.68066,0.603004 0.833857,0.591516 0.942053,0.679553 1.015089,0.825958 0.129166,0.258919 0.04701,0.520122 -0.222987,0.708946 -0.181162,0.126698 -0.338442,0.170892 -0.606557,0.170435 -0.329942,-5.63e-4 -0.374507,-0.02309 -1.101299,-0.556688 -0.773727,-0.568057 -1.142264,-0.813063 -1.16068,-0.771629 -0.02468,0.05554 0.212059,0.278695 0.933072,0.87953 0.304014,0.253342 0.394593,0.372334 0.423691,0.556594 0.06927,0.438651 -0.518912,0.804191 -1.102911,0.685432 z m 7.215504,-4.475551 c -0.114377,-0.03029 -0.2706,-0.0891 -0.347161,-0.130696 -0.14339,-0.0779 -0.912995,-0.640117 -3.180425,-2.323374 -1.441664,-1.070238 -1.455579,-1.078429 -1.872208,-1.101955 -0.40598,-0.02293 -0.523361,0.01266 -2.171801,0.65845 -0.562326,0.220295 -1.378516,0.527122 -1.485623,0.558485 -0.405841,0.118836 -0.920224,0.03112 -1.251426,-0.21339 -0.490866,-0.362389 -0.449974,-0.898388 0.09264,-1.214254 0.120872,-0.07036 0.971707,-0.466326 1.002028,-0.466326 0.0065,0 0.107905,-0.04409 0.225285,-0.09797 0.11738,-0.05388 0.365636,-0.163096 0.551681,-0.242696 0.186045,-0.0796 0.388582,-0.166533 0.450084,-0.193185 0.565055,-0.244869 2.85081,-1.185506 3.053139,-1.256432 0.167977,-0.05888 0.226654,-0.0665 0.512985,-0.06662 0.317282,-1.27e-4 0.328316,0.0018 0.591494,0.101857 0.245797,0.09347 0.667442,0.338466 1.369538,0.795757 0.785622,0.511694 1.345544,0.853996 1.457897,0.891271 0.19754,0.06554 0.468912,0.07868 0.730602,0.0354 0.123003,-0.02035 0.460862,-0.07588 0.750799,-0.123415 0.289936,-0.04753 0.649361,-0.106711 0.798722,-0.131508 0.232097,-0.03853 1.138722,-0.186929 1.413738,-0.2314 L 30,26.420527 l 0,2.265958 c 0,1.246277 -0.01119,2.271146 -0.02487,2.277486 -0.01368,0.0063 -0.297624,0.04952 -0.63099,0.09596 -1.47429,0.205378 -1.762301,0.222572 -2.123984,0.126799 z"
         id="path3080"
         inkscape:connector-curvature="0" />
      <path
         style="fill:#7e7d80"
         d="m 16.304536,35.892349 c -0.275532,-0.04922 -0.557236,-0.258235 -0.604908,-0.448821 -0.03655,-0.146126 0.005,-0.326488 0.121671,-0.528592 0.124766,-0.216061 0.121508,-0.220942 -0.10932,-0.163785 -0.553782,0.137125 -0.912007,0.09888 -1.183278,-0.126314 -0.209836,-0.174198 -0.232862,-0.357507 -0.08537,-0.679673 0.05405,-0.118072 0.09342,-0.218319 0.08749,-0.22277 -0.0059,-0.0044 -0.147206,0.01892 -0.313935,0.05195 -0.569782,0.112846 -0.873691,0.03613 -1.087147,-0.274425 -0.113795,-0.16556 -0.113632,-0.273187 8.2e-4,-0.540027 0.05562,-0.129689 0.09645,-0.23898 0.09072,-0.242868 -0.0057,-0.0039 -0.146997,0.0194 -0.31393,0.05174 -0.469063,0.09089 -0.731207,0.04649 -0.972188,-0.164656 -0.303068,-0.265551 -0.263478,-0.710001 0.09992,-1.121678 0.300901,-0.34088 0.71633,-0.519048 1.19176,-0.511117 0.358724,0.006 0.680657,0.132887 0.86413,0.340632 0.130378,0.147626 0.167546,0.268659 0.151856,0.494512 l -0.01335,0.192238 0.289419,0.0017 c 0.220783,0.0013 0.3248,0.01356 0.438609,0.05169 0.202146,0.06773 0.397341,0.204946 0.499779,0.351338 0.07589,0.108458 0.08475,0.146795 0.08349,0.361392 l -0.0014,0.240064 0.289428,0.0017 c 0.257884,0.0015 0.310621,0.0098 0.483889,0.0758 0.360866,0.137544 0.535815,0.353124 0.538623,0.663715 9.59e-4,0.105831 -0.0097,0.232677 -0.02357,0.28188 l -0.02531,0.08946 0.105182,-0.01758 c 0.05785,-0.0097 0.198634,-0.01758 0.312851,-0.01758 0.293966,0 0.532316,0.07798 0.727132,0.237907 0.553169,0.454089 0.289215,1.151801 -0.548459,1.449743 -0.1422,0.05058 -0.334732,0.103987 -0.427849,0.118688 -0.188057,0.02969 -0.511327,0.0315 -0.666735,0.0037 z m 3.764051,-0.219374 c -0.215714,-0.03034 -0.386645,-0.119938 -0.660625,-0.346276 l -0.252157,-0.208309 0.0089,-0.182597 c 0.03152,-0.643733 -0.404251,-1.187287 -1.145578,-1.428912 -0.25037,-0.08161 -0.267186,-0.09319 -0.31333,-0.215789 -0.121089,-0.321734 -0.550873,-0.683967 -1.008715,-0.850174 -0.151469,-0.05499 -0.275399,-0.113977 -0.275399,-0.13109 0,-0.01711 -0.06016,-0.121322 -0.133688,-0.231574 -0.201709,-0.302454 -0.535377,-0.53714 -0.963423,-0.677625 -0.12911,-0.04237 -0.192386,-0.07792 -0.205458,-0.115407 -0.05654,-0.162168 -0.276006,-0.429395 -0.475557,-0.579058 -0.376422,-0.282316 -0.863264,-0.424843 -1.448711,-0.424121 -0.90134,0.0011 -1.606191,0.329636 -2.013057,0.938268 -0.05673,0.08486 -0.106365,0.157086 -0.110305,0.160505 -0.0039,0.0034 -0.171165,-0.03804 -0.371613,-0.09214 -0.200447,-0.05409 -0.439929,-0.115002 -0.532181,-0.135353 L 10,31.116325 10,28.519824 c 0,-1.428076 0.0064,-2.596501 0.01413,-2.596501 0.0078,0 0.277811,0.06947 0.600084,0.154388 1.87856,0.494967 2.028003,0.522784 2.528256,0.4706 0.298121,-0.0311 0.49539,-0.09096 0.835164,-0.253409 0.394819,-0.188773 1.197141,-0.519333 1.709265,-0.704224 1.159778,-0.418712 1.793829,-0.513211 2.526118,-0.376493 0.16812,0.03139 0.398152,0.09192 0.511183,0.134519 0.193344,0.07287 0.572542,0.280917 0.572803,0.314275 1.92e-4,0.02284 -0.09314,0.06462 -0.686781,0.307519 -0.535601,0.219148 -1.035885,0.433209 -1.269968,0.543395 -0.0659,0.03102 -0.173722,0.08171 -0.239617,0.112663 -0.602659,0.283039 -0.765285,0.380627 -0.953005,0.571877 -0.261872,0.266796 -0.364667,0.478536 -0.387203,0.797573 -0.0222,0.314295 0.0218,0.479231 0.200283,0.750834 0.272711,0.41498 0.786839,0.714862 1.387529,0.80932 0.422193,0.06639 0.788022,0.01409 1.405044,-0.200854 1.292157,-0.450139 1.984874,-0.682366 2.100702,-0.704241 0.07614,-0.01438 0.251015,-0.02126 0.388603,-0.01528 0.473348,0.02055 0.403184,-0.02336 2.66638,1.66878 2.206187,1.649518 2.193184,1.638172 2.193239,1.913788 6.4e-5,0.377117 -0.368855,0.652123 -0.876469,0.653328 -0.334047,7.93e-4 -0.428774,-0.04477 -1.087338,-0.523012 -0.632632,-0.459411 -0.968799,-0.674545 -1.054039,-0.674545 -0.05085,0 -0.05002,0.007 0.0099,0.08313 0.08357,0.106234 0.561997,0.535902 1.03995,0.933969 0.314929,0.262291 0.380356,0.330532 0.42342,0.441635 0.135739,0.350194 -0.09785,0.694313 -0.549686,0.80978 -0.176974,0.04523 -0.461346,0.03292 -0.630502,-0.02728 -0.09714,-0.03457 -0.648241,-0.371201 -0.741627,-0.453007 -0.05739,-0.05027 -0.760142,-0.505915 -1.043733,-0.676724 -0.296916,-0.178835 -0.430043,-0.241791 -0.461461,-0.218227 -0.05673,0.04254 0.251394,0.28833 1.326771,1.058347 0.320064,0.22918 0.407772,0.336499 0.439569,0.537859 0.05678,0.359582 -0.353083,0.701287 -0.843375,0.703121 -0.378592,0.0014 -0.394371,-0.0064 -1.185516,-0.585879 -0.781999,-0.572799 -1.079214,-0.770279 -1.126388,-0.748413 -0.03063,0.0142 0.04062,0.12246 0.130554,0.19838 0.02636,0.02225 0.105432,0.0942 0.175719,0.159897 0.07029,0.06569 0.306282,0.265012 0.524433,0.442929 0.452759,0.369259 0.525318,0.46531 0.526356,0.696774 0.0019,0.41469 -0.486128,0.719084 -1.030125,0.642566 z m 7.359528,-4.440186 c -0.01757,-0.0051 -0.110151,-0.02734 -0.205731,-0.04949 -0.328995,-0.07625 -0.252299,-0.02311 -3.268891,-2.26477 -1.545768,-1.148673 -1.536132,-1.141959 -1.74902,-1.218649 -0.153843,-0.05542 -0.215493,-0.0633 -0.495208,-0.0633 -0.391953,0 -0.403645,0.0034 -1.516961,0.438342 -0.448419,0.175193 -1.109294,0.428588 -1.468611,0.563099 l -0.653305,0.244566 -0.321136,-1.9e-5 c -0.291981,-1.6e-5 -0.337091,-0.0063 -0.496856,-0.06911 -0.216624,-0.08517 -0.332475,-0.156737 -0.463284,-0.286172 -0.313252,-0.309962 -0.283865,-0.737072 0.06949,-1.009949 0.06352,-0.04905 0.211835,-0.135501 0.329598,-0.192115 0.247389,-0.118929 1.386252,-0.621632 1.901259,-0.83923 0.193291,-0.08167 0.408946,-0.173036 0.479233,-0.203041 0.227878,-0.09728 1.164604,-0.487463 1.895932,-0.789735 0.920917,-0.380633 0.965496,-0.393689 1.34688,-0.394484 0.280637,-5.85e-4 0.3186,0.0052 0.503662,0.07704 0.295043,0.114494 0.501957,0.220897 0.810398,0.416736 0.151647,0.09629 0.646577,0.411404 1.099844,0.700263 0.453267,0.288859 0.889895,0.552976 0.970285,0.586926 0.204158,0.08622 0.583463,0.08532 1.07268,-0.0025 0.423998,-0.07615 0.90824,-0.157314 1.613418,-0.270422 0.289936,-0.0465 0.645247,-0.106078 0.789579,-0.132384 0.144332,-0.02631 0.277392,-0.04783 0.295689,-0.04783 0.02288,0 0.03072,0.708362 0.02512,2.268712 l -0.0081,2.268712 -0.191694,0.03032 c -1.055988,0.16703 -2.208818,0.283339 -2.364217,0.238526 z"
         id="path3078"
         inkscape:connector-curvature="0" />
      <path
         style="fill:#6e6e6f"
         d="m 16.272338,35.880843 c -0.362453,-0.085 -0.585437,-0.299543 -0.585437,-0.563278 0,-0.112961 0.103899,-0.377927 0.206601,-0.52688 l 0.05482,-0.07951 -0.09078,0.01213 c -0.04993,0.0067 -0.212981,0.03609 -0.362342,0.06537 -0.447103,0.08765 -0.744548,0.03454 -0.967061,-0.172683 -0.121886,-0.113511 -0.183099,-0.227073 -0.183099,-0.339685 0,-0.07392 0.08555,-0.315518 0.16384,-0.462686 0.02252,-0.04233 0.03346,-0.08257 0.02432,-0.08943 -0.0091,-0.0069 -0.116321,0.0098 -0.238173,0.03712 -0.296727,0.06641 -0.662721,0.07199 -0.812604,0.01239 -0.152969,-0.06083 -0.282896,-0.170474 -0.371937,-0.313882 -0.09911,-0.159625 -0.09501,-0.225187 0.03201,-0.512501 0.05905,-0.133557 0.101233,-0.242831 0.09374,-0.242831 -0.0075,0 -0.159006,0.02816 -0.336704,0.06258 -0.447886,0.08675 -0.701131,0.05213 -0.923839,-0.126275 -0.175247,-0.140387 -0.23466,-0.265377 -0.232615,-0.489364 10e-4,-0.113091 0.02093,-0.242484 0.04423,-0.28754 0.244374,-0.472737 0.591092,-0.752414 1.068715,-0.862066 0.159957,-0.03672 0.474772,-0.03622 0.65781,10e-4 0.321282,0.06542 0.624882,0.286019 0.707525,0.514104 0.01953,0.05391 0.02822,0.183323 0.01948,0.290343 l -0.01576,0.19308 0.25966,-4.84e-4 c 0.334516,-6.23e-4 0.54595,0.05308 0.749578,0.190389 0.234357,0.15803 0.309476,0.302077 0.306079,0.586932 l -0.0027,0.228492 0.27429,5.01e-4 c 0.232163,4.24e-4 0.30509,0.01096 0.474831,0.0686 0.354755,0.120467 0.559079,0.359767 0.563554,0.660017 0.0015,0.09884 -0.0085,0.226821 -0.02227,0.284397 -0.02211,0.09277 -0.01877,0.102907 0.02931,0.08907 0.15873,-0.04568 0.42582,-0.04293 0.643392,0.0066 0.409541,0.09329 0.693009,0.363129 0.733525,0.698245 0.03345,0.276654 -0.176378,0.609968 -0.510685,0.811234 -0.388631,0.233971 -1.049298,0.350708 -1.45129,0.256437 z m 3.660882,-0.236541 c -0.162999,-0.04574 -0.304709,-0.132674 -0.549927,-0.337352 l -0.213964,-0.178592 -5.56e-4,-0.223524 c -3.19e-4,-0.122938 -0.02135,-0.297141 -0.04677,-0.387117 -0.130521,-0.462006 -0.571537,-0.856076 -1.155247,-1.032272 -0.171679,-0.05182 -0.191306,-0.06551 -0.236677,-0.165081 -0.180088,-0.395212 -0.536596,-0.699289 -1.033679,-0.881657 -0.249735,-0.09162 -0.253357,-0.09426 -0.33299,-0.242905 -0.107492,-0.200641 -0.254246,-0.366507 -0.441944,-0.499497 -0.184923,-0.131023 -0.272786,-0.175277 -0.567368,-0.285762 -0.20357,-0.07635 -0.228037,-0.09353 -0.273034,-0.191693 -0.387562,-0.845501 -1.789867,-1.198277 -2.962249,-0.745209 -0.42425,0.163952 -0.807683,0.484787 -0.997993,0.835065 -0.02327,0.04283 -0.04501,0.07787 -0.04832,0.07787 -0.0033,0 -0.177678,-0.04658 -0.387497,-0.103501 -0.209819,-0.05693 -0.44978,-0.117633 -0.533247,-0.134903 L 10,31.116775 l 0,-2.59929 c 0,-2.465683 0.0029,-2.598461 0.05591,-2.583161 0.07894,0.02277 0.858908,0.225368 1.685303,0.437756 l 0.702875,0.180643 0.383387,0.0022 c 0.553601,0.0032 0.63647,-0.01943 1.495411,-0.407777 0.780959,-0.353092 1.618746,-0.66572 2.27267,-0.848066 0.926319,-0.258304 1.857145,-0.158511 2.581886,0.276803 0.06582,0.03954 0.11968,0.07918 0.119681,0.0881 1e-6,0.01562 -0.117451,0.06829 -0.527156,0.23643 -0.105431,0.04327 -0.234824,0.09681 -0.28754,0.118985 -0.05272,0.02217 -0.232428,0.09753 -0.399361,0.167466 -0.900801,0.377369 -1.539292,0.692785 -1.789137,0.88384 -0.432842,0.33099 -0.61796,0.773804 -0.523253,1.251656 0.04868,0.245602 0.092,0.330828 0.288212,0.566966 0.400357,0.481824 1.242427,0.779296 1.922105,0.679007 0.199576,-0.02945 0.585653,-0.140198 0.932744,-0.267566 0.114217,-0.04191 0.351438,-0.124263 0.527157,-0.183 0.175718,-0.05874 0.376996,-0.126886 0.447284,-0.15144 0.945749,-0.330401 1.013408,-0.346744 1.361426,-0.328853 0.478722,0.02461 0.42434,-0.0096 2.685062,1.688673 1.373813,1.032015 2.025029,1.537557 2.075937,1.61156 0.110382,0.160457 0.105304,0.422396 -0.01144,0.58993 -0.158888,0.228019 -0.417824,0.343204 -0.773426,0.344048 -0.324706,7.72e-4 -0.439078,-0.05063 -0.960566,-0.43168 -0.815094,-0.59559 -1.075498,-0.765237 -1.175246,-0.765644 -0.04876,-1.92e-4 -0.0517,0.0076 -0.02026,0.05368 0.08943,0.131116 0.443241,0.451124 1.075466,0.972711 0.377347,0.311314 0.455506,0.418852 0.455506,0.626731 0,0.274933 -0.257377,0.539301 -0.597163,0.613385 -0.215737,0.04704 -0.465304,0.03192 -0.651937,-0.03949 -0.105489,-0.04036 -0.484922,-0.27704 -0.747183,-0.466068 -0.09493,-0.06843 -0.47349,-0.316479 -0.735346,-0.481845 -0.430013,-0.27156 -0.651488,-0.392756 -0.717726,-0.392756 -0.115082,0 0.05994,0.152775 0.8098,0.706869 0.885174,0.654081 0.877948,0.647106 0.934009,0.90153 0.02628,0.119245 -0.06104,0.330554 -0.188285,0.455678 -0.158283,0.155643 -0.389618,0.236242 -0.678054,0.236242 -0.350253,0 -0.439752,-0.04666 -1.289339,-0.672245 -0.705691,-0.519626 -0.973305,-0.693871 -1.016234,-0.661673 -0.04773,0.03579 0.224542,0.294411 0.848318,0.805783 0.45177,0.370361 0.52416,0.466465 0.52416,0.695867 0,0.252418 -0.177931,0.478357 -0.465175,0.590688 -0.136073,0.05321 -0.544359,0.06777 -0.697264,0.02486 z M 27.312858,31.20808 C 26.924735,31.1278 26.935834,31.1354 23.79293,28.798722 c -1.60519,-1.193423 -1.549531,-1.162141 -2.06769,-1.162141 -0.364184,0 -0.506712,0.03013 -0.910544,0.192458 -1.013338,0.40734 -2.4955,0.966314 -2.69968,1.018141 -0.449117,0.114 -0.919758,0.01547 -1.248852,-0.26146 -0.374775,-0.315366 -0.387986,-0.741481 -0.0322,-1.038568 0.13862,-0.115751 0.26338,-0.183101 0.716002,-0.386527 0.214069,-0.09621 0.340237,-0.151603 1.140129,-0.50056 0.912812,-0.398219 3.300066,-1.390312 3.5524,-1.476303 0.395842,-0.134897 0.758117,-0.128605 1.137071,0.01975 0.314872,0.123267 0.415476,0.181387 1.402441,0.810208 0.449432,0.286344 0.924057,0.588145 1.054724,0.670668 0.489953,0.309434 0.647026,0.325245 1.607357,0.161795 0.360224,-0.06131 0.813099,-0.136874 1.00639,-0.167919 0.314469,-0.05051 1.292985,-0.212621 1.477636,-0.244803 L 30,26.420931 l 0,2.264606 c 0,1.985046 -0.0059,2.2663 -0.04765,2.27832 -0.02621,0.0075 -0.288586,0.04739 -0.583067,0.08854 -1.390922,0.194388 -1.74111,0.220899 -2.056428,0.155682 z"
         id="path3076"
         inkscape:connector-curvature="0" />
      <path
         style="fill:#4f4e4f"
         d="m 16.357827,35.891917 c -0.400544,-0.06415 -0.670926,-0.301158 -0.670926,-0.588121 0,-0.09937 0.07793,-0.299981 0.168161,-0.432882 0.124074,-0.182751 0.132689,-0.179902 -0.296151,-0.09794 -0.355797,0.068 -0.399331,0.07145 -0.567969,0.04505 -0.335945,-0.05261 -0.590021,-0.249676 -0.634156,-0.491873 -0.01723,-0.09455 -0.0018,-0.158765 0.08485,-0.353376 0.05825,-0.130805 0.09722,-0.244343 0.0866,-0.252308 -0.01062,-0.008 -0.08853,0.0023 -0.173135,0.02276 -0.376945,0.09126 -0.678767,0.100302 -0.874334,0.02618 -0.155394,-0.0589 -0.34375,-0.239281 -0.399182,-0.382291 -0.05851,-0.150951 -0.04697,-0.211889 0.09614,-0.507584 0.04294,-0.08872 0.07371,-0.164591 0.06838,-0.16859 -0.0053,-0.004 -0.166195,0.02101 -0.357472,0.05558 -0.305117,0.05515 -0.367498,0.05955 -0.508557,0.03587 -0.08843,-0.01484 -0.206723,-0.04794 -0.262874,-0.07355 -0.153406,-0.06997 -0.320294,-0.256667 -0.361993,-0.404961 -0.122881,-0.43701 0.330759,-1.060733 0.922898,-1.268921 0.160248,-0.05634 0.220292,-0.06375 0.516778,-0.06375 0.289185,0 0.355297,0.0077 0.479233,0.05596 0.182823,0.07116 0.364934,0.201598 0.47387,0.339406 0.07799,0.09867 0.08524,0.129483 0.08524,0.362651 l 0,0.254822 0.239616,-0.0032 c 0.34503,-0.0046 0.577231,0.05872 0.788506,0.215185 0.138286,0.102409 0.177202,0.151455 0.236656,0.298259 0.06126,0.151268 0.06706,0.197899 0.04172,0.335396 l -0.02943,0.1597 0.291837,-10e-4 c 0.254298,-8.94e-4 0.313942,0.0072 0.463701,0.06332 0.225772,0.08452 0.355323,0.176445 0.477489,0.338795 0.08436,0.112108 0.10084,0.160273 0.104898,0.306562 0.0026,0.09546 -0.007,0.225406 -0.02139,0.288776 l -0.0262,0.115218 0.122046,-0.01937 c 0.450549,-0.07151 0.889048,0.05255 1.123325,0.317821 0.273857,0.310086 0.243455,0.694301 -0.08032,1.015052 -0.33589,0.332755 -1.074374,0.542839 -1.607862,0.457403 z m 3.546326,-0.257962 c -0.107613,-0.02843 -0.218091,-0.09563 -0.439297,-0.2672 l -0.295527,-0.229221 -4.73e-4,-0.252074 c -8.75e-4,-0.467456 -0.160819,-0.769205 -0.573425,-1.081823 -0.197908,-0.149949 -0.294229,-0.201604 -0.536169,-0.28754 -0.288901,-0.102617 -0.295819,-0.107035 -0.338902,-0.216462 -0.07202,-0.182923 -0.264932,-0.415669 -0.47761,-0.57623 -0.184019,-0.138925 -0.543273,-0.313321 -0.710149,-0.344734 -0.0495,-0.0093 -0.09453,-0.05905 -0.156714,-0.173109 -0.191077,-0.350439 -0.514413,-0.610467 -0.960428,-0.77238 -0.23891,-0.08673 -0.272051,-0.106856 -0.305866,-0.185752 -0.176192,-0.411089 -0.683897,-0.770869 -1.291702,-0.915354 -0.348198,-0.08277 -0.893882,-0.07804 -1.277956,0.01109 -0.633604,0.147029 -1.097457,0.446528 -1.374783,0.887668 -0.04971,0.07907 -0.09199,0.146019 -0.09396,0.148767 -0.002,0.0027 -0.161124,-0.03876 -0.353679,-0.09224 -0.192553,-0.05348 -0.432766,-0.113665 -0.533804,-0.133746 L 10,31.117105 10,28.51765 c 0,-2.466151 0.0029,-2.598586 0.05591,-2.582511 0.07118,0.02157 1.504538,0.39435 1.986767,0.516706 0.76074,0.193022 1.334555,0.147831 1.948159,-0.153431 0.495275,-0.243166 1.539059,-0.662219 2.127374,-0.854087 0.558682,-0.182205 1.0853,-0.287777 1.435487,-0.287777 0.465007,0 1.008537,0.113502 1.381307,0.28845 0.132723,0.06229 0.36212,0.203971 0.36212,0.223654 0,0.0057 -0.230653,0.105776 -0.512562,0.222378 -0.281909,0.116602 -0.551478,0.228571 -0.599042,0.248821 -1.593676,0.678489 -1.955581,0.884794 -2.223886,1.267733 -0.284527,0.406091 -0.29059,0.939318 -0.01534,1.349204 0.318651,0.474518 0.960933,0.793991 1.65754,0.824464 0.37725,0.0165 0.664006,-0.04439 1.341853,-0.284939 0.383115,-0.135957 0.57679,-0.202824 1.309904,-0.45225 l 0.591054,-0.201094 0.304209,0 c 0.281865,0 0.320584,0.006 0.527157,0.0822 0.206773,0.07624 0.370443,0.192942 2.256029,1.608687 1.920156,1.4417 2.037009,1.534292 2.103801,1.667002 0.09145,0.181701 0.075,0.362933 -0.04838,0.532944 -0.105252,0.145036 -0.173993,0.195145 -0.379206,0.276416 -0.12291,0.04868 -0.201799,0.06194 -0.367413,0.06175 -0.327999,-3.64e-4 -0.454713,-0.0588 -1.009618,-0.465573 -0.747897,-0.54825 -1.198083,-0.817138 -1.198083,-0.715592 0,0.05892 0.453553,0.476748 1.008569,0.929121 0.472846,0.3854 0.540414,0.47406 0.539087,0.707358 -0.0012,0.207149 -0.05973,0.320353 -0.232875,0.450208 -0.239874,0.179906 -0.655911,0.237343 -0.963344,0.132999 -0.124251,-0.04217 -0.512484,-0.285787 -1.022364,-0.64153 -0.234165,-0.163377 -0.920167,-0.584842 -1.058615,-0.650391 -0.07051,-0.03338 -0.149407,-0.05737 -0.175317,-0.05329 -0.09606,0.0151 0.181237,0.243115 1.068874,0.8789 0.298356,0.213703 0.565655,0.425201 0.593997,0.469996 0.186064,0.294076 0.06935,0.663887 -0.263774,0.835758 -0.172704,0.08911 -0.273361,0.111091 -0.508595,0.111091 -0.333729,0 -0.422991,-0.04473 -1.126218,-0.564394 -0.839324,-0.620233 -1.122303,-0.806339 -1.170776,-0.769984 -0.04807,0.03605 0.215956,0.292186 0.770104,0.747079 0.17644,0.144837 0.346912,0.285013 0.378827,0.311502 0.146478,0.121573 0.192675,0.21064 0.20726,0.399593 0.0184,0.238406 -0.03997,0.36195 -0.241378,0.510872 -0.232089,0.171607 -0.601392,0.226251 -0.934453,0.138265 z m 7.390129,-4.436987 c -0.373898,-0.08023 -0.202048,0.03641 -3.055624,-2.073891 -1.421717,-1.051398 -1.854959,-1.358322 -1.996805,-1.414611 -0.171246,-0.06795 -0.201238,-0.07186 -0.548562,-0.07138 l -0.367412,5.05e-4 -0.399361,0.148752 c -0.219649,0.08181 -0.589199,0.223742 -0.821222,0.315398 -0.783099,0.309345 -1.781582,0.68633 -1.942357,0.733351 -0.236764,0.06924 -0.616959,0.06499 -0.846645,-0.0095 -0.713113,-0.231193 -0.95743,-0.822677 -0.513713,-1.243684 0.127252,-0.12074 0.440348,-0.293286 0.833202,-0.459175 0.131789,-0.05565 0.31869,-0.136947 0.415335,-0.180661 0.248425,-0.112365 0.93064,-0.404624 1.677317,-0.718559 0.351437,-0.147759 0.696485,-0.293158 0.766773,-0.323108 0.31115,-0.132586 0.395557,-0.167844 0.591054,-0.246899 0.114217,-0.04619 0.38738,-0.15847 0.607029,-0.249518 0.63526,-0.263326 0.796043,-0.307465 1.117739,-0.306852 0.358098,6.83e-4 0.519522,0.05422 1.079458,0.35803 0.11839,0.06424 1.08,0.674154 1.730537,1.097624 0.238309,0.155127 0.497985,0.306086 0.577058,0.335463 0.208463,0.07745 0.632144,0.07314 1.102236,-0.0112 0.425346,-0.07631 0.910796,-0.157655 1.613419,-0.270354 0.289936,-0.0465 0.645247,-0.106078 0.789579,-0.132384 0.144332,-0.02631 0.270131,-0.04783 0.279552,-0.04783 0.0094,0 0.01713,1.018243 0.01713,2.262762 0,2.134508 -0.0032,2.263436 -0.05591,2.274653 -0.03075,0.0065 -0.134984,0.02318 -0.231629,0.03699 -0.09664,0.01381 -0.326677,0.04672 -0.511182,0.07314 -0.67647,0.09688 -1.328541,0.168705 -1.516465,0.167041 -0.10604,-9.4e-4 -0.281779,-0.0208 -0.390531,-0.04414 z"
         id="path3074"
         inkscape:connector-curvature="0" />
      <path
         style="fill:#2e2e2f"
         d="m 16.373802,35.894196 c -0.311349,-0.04359 -0.549859,-0.200116 -0.643149,-0.422078 -0.04908,-0.116768 -0.0511,-0.152101 -0.01617,-0.282424 0.02196,-0.08193 0.08224,-0.215672 0.133967,-0.29721 0.106533,-0.167947 0.116365,-0.210746 0.0436,-0.189805 -0.168211,0.04841 -0.59918,0.116266 -0.750697,0.118195 -0.368951,0.0047 -0.728103,-0.211935 -0.77325,-0.466403 -0.02167,-0.122155 0.0056,-0.232873 0.114419,-0.463896 0.09374,-0.199086 0.086,-0.203804 -0.218607,-0.133241 -0.138202,0.03202 -0.300955,0.04937 -0.462887,0.04937 -0.233027,0 -0.258941,-0.0053 -0.387196,-0.07863 -0.375983,-0.215079 -0.437955,-0.476659 -0.21004,-0.886557 0.03503,-0.063 0.05505,-0.121029 0.04449,-0.128952 -0.01056,-0.0079 -0.141395,0.0086 -0.290736,0.03667 -0.585066,0.110054 -0.915448,0.02944 -1.119605,-0.273194 -0.122027,-0.180888 -0.123878,-0.456369 -0.0046,-0.679 0.293807,-0.548208 0.826703,-0.846096 1.45343,-0.812464 0.376539,0.02021 0.704195,0.178169 0.867799,0.418368 0.06887,0.101108 0.07837,0.145709 0.07666,0.35974 l -0.002,0.244323 0.244223,-0.0012 c 0.361093,-0.0018 0.573318,0.05611 0.783382,0.213652 0.113968,0.08548 0.187056,0.165784 0.221344,0.24321 0.05299,0.119656 0.0702,0.373882 0.03285,0.485225 l -0.02138,0.06372 0.301579,0 c 0.263607,0 0.323287,0.0081 0.47398,0.0646 0.231286,0.08667 0.366088,0.186546 0.484648,0.359081 0.0879,0.127915 0.09873,0.166256 0.0982,0.347658 -3.29e-4,0.112549 -0.01787,0.228104 -0.03917,0.257944 -0.05305,0.07435 0.01292,0.09056 0.218216,0.05363 0.428406,-0.07708 0.955528,0.145939 1.114779,0.47165 0.101285,0.207156 0.113992,0.315069 0.05681,0.482471 -0.06703,0.19623 -0.144295,0.304881 -0.322567,0.453592 -0.335119,0.27955 -1.023163,0.459048 -1.502415,0.391952 z m 3.599842,-0.244319 C 19.819952,35.6146 19.66117,35.520581 19.40648,35.314042 l -0.224387,-0.181964 -7.32e-4,-0.249346 c -0.0014,-0.490858 -0.225109,-0.864397 -0.699604,-1.168388 -0.164815,-0.105591 -0.601694,-0.291021 -0.685655,-0.291021 -0.01539,0 -0.05153,-0.06074 -0.08031,-0.134984 -0.131606,-0.339532 -0.530518,-0.684966 -0.978743,-0.847534 L 16.475755,32.346035 16.33977,32.135877 C 16.26498,32.020289 16.148588,31.875089 16.081126,31.813208 15.903497,31.650276 15.606173,31.4805 15.3627,31.402976 c -0.208173,-0.06628 -0.21312,-0.06998 -0.281291,-0.210204 -0.130869,-0.269192 -0.431977,-0.545516 -0.767595,-0.704416 -0.07598,-0.03597 -0.26177,-0.09832 -0.412876,-0.138557 -0.251342,-0.06692 -0.310109,-0.07324 -0.690074,-0.07414 -0.36678,-8.68e-4 -0.446375,0.0066 -0.680838,0.06382 -0.407865,0.09955 -0.629615,0.19927 -0.916413,0.412115 -0.197365,0.146474 -0.291108,0.23974 -0.397388,0.395368 -0.0765,0.112021 -0.142836,0.207125 -0.147413,0.211342 -0.0083,0.0077 -0.130412,-0.02098 -0.733348,-0.171952 l -0.319489,-0.08 -0.0081,-2.589788 -0.00813,-2.589788 0.551261,0.144701 c 1.666401,0.437415 1.832643,0.475514 2.141061,0.490685 0.526602,0.0259 0.822775,-0.03556 1.333522,-0.276758 0.114217,-0.05394 0.272364,-0.125431 0.351438,-0.158874 0.07907,-0.03344 0.208466,-0.08882 0.28754,-0.123069 0.973332,-0.421526 1.953956,-0.737502 2.521022,-0.812323 0.695562,-0.09178 1.523503,0.07689 2.0065,0.408751 l 0.106175,0.07295 -0.688383,0.286982 c -0.37861,0.157839 -0.756255,0.316533 -0.839212,0.352652 -0.08296,0.03612 -0.215527,0.09308 -0.294601,0.126573 -0.07907,0.0335 -0.204556,0.09021 -0.278851,0.126022 -0.07429,0.03582 -0.254882,0.122033 -0.401303,0.191592 -0.608031,0.288852 -0.928983,0.628538 -1.033003,1.093304 -0.04937,0.220564 -0.04942,0.254449 -7.03e-4,0.479233 0.105221,0.48554 0.50264,0.888166 1.090856,1.105153 0.409937,0.15122 0.838798,0.193819 1.230032,0.122179 0.175094,-0.03206 0.658115,-0.170158 0.71885,-0.205518 0.01757,-0.01023 0.434505,-0.155171 0.926518,-0.32209 0.492012,-0.166918 0.916134,-0.31229 0.942492,-0.323047 0.123173,-0.05027 0.401336,-0.08013 0.60262,-0.06468 0.445371,0.03418 0.401455,0.0061 2.655749,1.697471 l 2.036513,1.527965 0.06821,0.155844 c 0.03752,0.08572 0.06821,0.180902 0.06821,0.211527 0,0.09713 -0.111663,0.314068 -0.209298,0.406625 -0.138342,0.131147 -0.424644,0.231575 -0.660176,0.231575 -0.300278,0 -0.432488,-0.06026 -0.919662,-0.419198 -0.560253,-0.412778 -1.077278,-0.752319 -1.17301,-0.770339 -0.110823,-0.02086 -0.12565,0.0066 -0.04677,0.08663 0.03829,0.03884 0.06962,0.07723 0.06962,0.08531 0,0.02639 0.817354,0.734249 1.134186,0.982245 0.29982,0.23468 0.37377,0.550077 0.186651,0.796066 -0.193647,0.25457 -0.517638,0.365273 -0.914695,0.312537 -0.19461,-0.02585 -0.340946,-0.09269 -0.611012,-0.279086 -1.084904,-0.748794 -1.775522,-1.1635 -1.847588,-1.10945 -0.06433,0.04825 0.331595,0.370212 1.184887,0.963556 0.468981,0.32611 0.550928,0.418331 0.572481,0.64425 0.02648,0.277514 -0.09858,0.466133 -0.407785,0.61507 -0.131297,0.06324 -0.168716,0.06925 -0.43131,0.06925 -0.261855,0 -0.300031,-0.0061 -0.427371,-0.06811 -0.07691,-0.03746 -0.37263,-0.242334 -0.657162,-0.455272 -0.964701,-0.721961 -1.231761,-0.88933 -1.231761,-0.771958 0,0.04671 0.428317,0.440927 0.860679,0.792147 0.20105,0.163318 0.390105,0.342097 0.437614,0.413826 0.07412,0.111901 0.082,0.147384 0.06926,0.311502 -0.01251,0.161117 -0.02863,0.20138 -0.123875,0.30946 -0.157437,0.178652 -0.380877,0.275154 -0.661295,0.28561 -0.118233,0.0044 -0.262772,-0.003 -0.321198,-0.01637 z m 7.48642,-4.433782 c -0.221755,-0.02417 -0.391294,-0.07097 -0.54986,-0.151782 -0.12012,-0.06122 -0.31705,-0.205016 -2.851627,-2.08226 -1.641905,-1.216083 -1.770723,-1.301121 -2.03619,-1.344156 -0.187673,-0.03042 -0.564286,-0.01852 -0.728457,0.02303 -0.157674,0.0399 -0.523904,0.172949 -1.022365,0.371417 -0.252377,0.100487 -1.292849,0.501364 -1.789137,0.689326 -0.476257,0.180375 -0.734418,0.209755 -1.079283,0.122824 -0.591342,-0.14906 -0.941023,-0.603349 -0.777702,-1.010354 0.0577,-0.143784 0.210578,-0.30063 0.396874,-0.407167 0.196733,-0.112505 1.174891,-0.552926 1.987268,-0.894779 0.184504,-0.07764 0.360013,-0.152049 0.390018,-0.165351 0.414621,-0.183815 2.838645,-1.170015 2.980589,-1.212635 0.365321,-0.109691 0.812403,-0.06068 1.178397,0.129186 0.161499,0.08378 0.444477,0.241737 0.502527,0.280509 0.09409,0.06284 0.189944,0.124332 0.843037,0.540797 0.351438,0.224105 0.753994,0.480811 0.894569,0.570457 0.140575,0.08965 0.312405,0.184925 0.381845,0.21173 0.189037,0.07297 0.5687,0.08235 0.928059,0.02293 0.158147,-0.02615 0.452876,-0.07499 0.654952,-0.108535 0.770819,-0.127954 1.272667,-0.210141 1.565495,-0.25638 0.279712,-0.04417 0.47381,-0.07871 0.615016,-0.109443 C 29.997057,26.423929 30,26.542344 30,28.68536 l 0,2.262073 -0.247604,0.04025 c -0.136182,0.02214 -0.369808,0.05608 -0.519169,0.07543 -0.996703,0.129101 -1.188064,0.151689 -1.373802,0.162165 -0.114217,0.0064 -0.29393,0.0023 -0.399361,-0.0092 z"
         id="path3072"
         inkscape:connector-curvature="0" />
      <path
         style="fill:#171617"
         d="m 16.405751,35.892771 c -0.293401,-0.03913 -0.563011,-0.193804 -0.658039,-0.377527 -0.06367,-0.12309 -0.04113,-0.34914 0.05128,-0.514331 0.04673,-0.08353 0.101074,-0.181113 0.120772,-0.216851 0.0197,-0.03574 0.02927,-0.06988 0.02128,-0.07588 -0.008,-0.006 -0.158302,0.01485 -0.334021,0.04633 -0.175718,0.03147 -0.37798,0.05753 -0.449471,0.05791 -0.217648,0.0011 -0.434792,-0.06081 -0.561941,-0.160332 -0.257744,-0.201737 -0.286195,-0.36946 -0.122186,-0.72031 0.05718,-0.122308 0.09649,-0.227978 0.08736,-0.234823 -0.0091,-0.0068 -0.108126,0.011 -0.220001,0.03966 -0.226754,0.05808 -0.566517,0.08503 -0.748814,0.05938 -0.08609,-0.01211 -0.165898,-0.05228 -0.283707,-0.142779 -0.168447,-0.129401 -0.241176,-0.249671 -0.241176,-0.398828 0,-0.09542 0.08679,-0.335976 0.163541,-0.453303 0.06619,-0.101178 0.03362,-0.141047 -0.08275,-0.101283 -0.129513,0.04426 -0.488646,0.100613 -0.633897,0.09947 -0.296238,-0.0023 -0.530022,-0.118874 -0.670812,-0.334412 -0.166418,-0.25477 -0.0898,-0.636915 0.191401,-0.954651 0.119463,-0.134983 0.442519,-0.387202 0.495951,-0.387202 0.01732,0 0.06994,-0.02054 0.116939,-0.04563 0.219413,-0.117177 0.753227,-0.123112 1.04147,-0.01158 0.210894,0.0816 0.316031,0.158147 0.439255,0.319791 0.09665,0.126791 0.101151,0.144293 0.09952,0.387356 l -0.0017,0.254565 0.204341,-0.0123 c 0.492382,-0.02964 0.907571,0.154758 1.049775,0.466243 0.03777,0.08274 0.04956,0.17535 0.04183,0.32864 l -0.01076,0.213437 0.245383,-0.0053 c 0.489287,-0.01054 0.808967,0.128585 0.999433,0.434965 0.07766,0.124931 0.08422,0.157151 0.07063,0.347445 -0.0082,0.115359 -0.02004,0.2367 -0.02623,0.269648 -0.0071,0.03778 0.0032,0.05778 0.02775,0.05415 0.450099,-0.06644 0.839097,-0.0028 1.077974,0.176353 0.165061,0.123795 0.226588,0.216394 0.288443,0.434106 0.03793,0.133512 0.03608,0.168552 -0.01736,0.328939 -0.0329,0.09873 -0.08075,0.209876 -0.106341,0.246992 -0.06969,0.101081 -0.333708,0.296481 -0.519732,0.384661 -0.31049,0.147181 -0.838765,0.238174 -1.145382,0.197287 z m 3.596528,-0.243547 c -0.169567,-0.03873 -0.351645,-0.143744 -0.592941,-0.341991 l -0.221001,-0.181574 0.0087,-0.210194 c 0.0068,-0.164316 -0.0094,-0.26221 -0.07412,-0.448519 -0.04553,-0.13108 -0.100557,-0.255081 -0.122277,-0.27556 -0.02172,-0.02048 -0.06778,-0.07904 -0.102342,-0.13013 -0.146878,-0.217098 -0.614914,-0.507943 -0.988435,-0.614231 -0.116451,-0.03314 -0.134126,-0.05038 -0.208741,-0.203675 -0.117364,-0.241115 -0.180348,-0.313538 -0.448689,-0.515929 -0.231259,-0.174423 -0.508375,-0.314966 -0.687525,-0.348689 -0.05928,-0.01116 -0.10081,-0.04321 -0.133245,-0.102824 -0.241096,-0.443147 -0.514209,-0.669612 -1.052918,-0.873079 -0.214571,-0.08104 -0.227418,-0.09077 -0.295194,-0.223607 -0.12905,-0.252921 -0.392228,-0.501326 -0.698676,-0.659457 -0.518078,-0.267335 -1.295655,-0.332435 -1.941082,-0.16251 -0.157964,0.04159 -0.308772,0.08814 -0.33513,0.103454 -0.02636,0.01531 -0.09718,0.04832 -0.157382,0.07335 -0.301622,0.125419 -0.623672,0.408546 -0.808598,0.710872 -0.08048,0.131576 -0.08094,0.131612 -0.423796,0.03242 -0.105431,-0.0305 -0.310304,-0.08453 -0.455272,-0.120061 L 10,31.092692 10,28.519988 c 0,-1.414987 0.0088,-2.572704 0.01949,-2.572704 0.03123,0 0.884611,0.215184 0.95495,0.240796 0.03514,0.0128 0.171725,0.05043 0.303514,0.08363 1.118513,0.281754 1.09419,0.276777 1.423065,0.291184 0.365924,0.01603 0.692605,-0.01758 0.909204,-0.09354 0.07907,-0.02773 0.28754,-0.11719 0.463258,-0.1988 0.654586,-0.304009 1.719146,-0.724097 2.070715,-0.817128 0.07053,-0.01866 0.14386,-0.04274 0.162949,-0.05351 0.05624,-0.03172 0.59538,-0.165735 0.779091,-0.193663 0.237138,-0.03605 0.778868,-0.03201 1.044753,0.0078 0.378647,0.05669 0.788755,0.20738 1.050585,0.386036 0.103532,0.07064 0.09704,0.08042 -0.108093,0.162848 -1.518742,0.610271 -2.458365,1.043396 -2.761271,1.272828 -0.202226,0.153173 -0.256255,0.207904 -0.368401,0.373185 -0.671695,0.989951 0.286322,2.178001 1.758031,2.180157 0.396582,5.8e-4 0.573829,-0.04577 1.747041,-0.456838 1.396911,-0.489451 1.375095,-0.483231 1.701278,-0.485059 0.232024,-0.0013 0.301803,0.0085 0.479233,0.06717 0.194658,0.06439 0.335415,0.164133 2.246825,1.592094 1.239755,0.926186 2.064924,1.560695 2.104884,1.618539 0.149191,0.215961 0.09526,0.56294 -0.113107,0.727715 -0.158021,0.12496 -0.433911,0.219475 -0.64065,0.219475 -0.284254,0 -0.484612,-0.09834 -1.049845,-0.515286 -0.647448,-0.477593 -1.007131,-0.706758 -1.109283,-0.706758 -0.09212,0 -0.0029,0.122987 0.282162,0.388868 0.173379,0.161721 0.371063,0.337883 0.439297,0.391471 0.350511,0.275274 0.61229,0.504981 0.689815,0.605303 0.0722,0.09343 0.08674,0.141213 0.08786,0.288634 0.0012,0.153635 -0.01159,0.194308 -0.09779,0.311911 -0.07026,0.09585 -0.147024,0.159035 -0.263578,0.216948 -0.142939,0.07102 -0.19675,0.08312 -0.411402,0.0925 -0.21901,0.0096 -0.266007,0.0037 -0.415336,-0.05209 -0.09261,-0.03458 -0.249832,-0.119523 -0.349384,-0.188754 -0.09955,-0.06923 -0.214567,-0.147736 -0.255591,-0.174456 -0.04102,-0.02672 -0.226663,-0.150722 -0.412531,-0.275559 -0.185868,-0.124837 -0.392758,-0.259325 -0.459756,-0.298862 -0.067,-0.03954 -0.145209,-0.08806 -0.173802,-0.107827 -0.196521,-0.135866 -0.532236,-0.311502 -0.595414,-0.311502 -0.157215,0 0.08582,0.222905 0.770723,0.706869 0.912827,0.645025 0.93983,0.670841 0.965192,0.922788 0.02578,0.256122 -0.121699,0.469264 -0.419485,0.60624 -0.119431,0.05494 -0.204679,0.07382 -0.37443,0.08292 -0.346354,0.01859 -0.444759,-0.02938 -1.180197,-0.575249 -0.900442,-0.668344 -1.182109,-0.841092 -1.182109,-0.724995 0,0.0644 0.464459,0.49325 0.905606,0.836174 0.120287,0.09351 0.269824,0.226773 0.332304,0.296151 0.0984,0.109265 0.115631,0.149894 0.128788,0.303663 0.01291,0.150926 0.0042,0.194571 -0.05827,0.291339 -0.08922,0.138235 -0.261587,0.271686 -0.426889,0.330516 -0.147796,0.0526 -0.441046,0.07047 -0.591715,0.03606 z m 7.279809,-4.461507 c -0.348915,-0.07446 -0.321893,-0.05586 -3.297544,-2.269187 -0.82389,-0.612819 -1.557858,-1.142174 -1.631039,-1.176343 -0.258286,-0.120597 -0.563526,-0.161346 -0.882631,-0.11783 -0.207166,0.02825 -0.626111,0.171452 -1.406976,0.480922 -1.091249,0.43248 -1.860809,0.715273 -2.018479,0.741736 -0.42049,0.07058 -0.81812,-0.0097 -1.117218,-0.225615 -0.327513,-0.236403 -0.426381,-0.597768 -0.241189,-0.881546 0.09359,-0.143404 0.355453,-0.343476 0.561616,-0.429085 0.06357,-0.0264 0.194663,-0.08466 0.291308,-0.129459 0.09664,-0.0448 0.228811,-0.103473 0.293702,-0.130376 0.188223,-0.07803 0.709618,-0.308985 0.744637,-0.329835 0.01757,-0.01046 0.09664,-0.04415 0.175719,-0.07485 0.07907,-0.03071 0.28754,-0.118654 0.463258,-0.195437 0.290364,-0.126877 1.208115,-0.511709 1.645368,-0.689936 0.09664,-0.03939 0.420128,-0.173012 0.71885,-0.296931 0.766712,-0.318055 0.932276,-0.367023 1.230032,-0.363795 0.44811,0.0049 0.697635,0.122025 1.927328,0.904996 0.477825,0.30424 0.897397,0.571303 0.932383,0.593472 0.03499,0.02217 0.142685,0.09044 0.23933,0.151709 0.254038,0.161056 0.330571,0.184645 0.637925,0.196624 0.303332,0.01182 0.389425,4.8e-5 2.141628,-0.292794 0.184505,-0.03084 0.539711,-0.08835 0.789347,-0.127812 0.249637,-0.03946 0.468886,-0.0787 0.487221,-0.0872 C 29.989723,26.428453 30,27.120614 30,28.684327 l 0,2.260638 -0.183706,0.02853 c -0.101038,0.01569 -0.384984,0.05584 -0.63099,0.08922 -0.246007,0.03338 -0.555112,0.07709 -0.686901,0.09713 -0.338001,0.05141 -1.031544,0.0673 -1.216315,0.02787 z"
         id="path3070"
         inkscape:connector-curvature="0" />
      <path
         style="fill:#010003"
         d="m 16.438114,35.896599 c -0.07006,-0.0048 -0.134756,-0.01663 -0.14377,-0.02621 -0.009,-0.0096 -0.08415,-0.03647 -0.166966,-0.05976 -0.122923,-0.03457 -0.174264,-0.06895 -0.279553,-0.187203 -0.114996,-0.129156 -0.128975,-0.160491 -0.128975,-0.289106 0,-0.134257 0.05199,-0.325958 0.09586,-0.353484 0.0105,-0.0066 0.0498,-0.0731 0.08733,-0.147798 0.05362,-0.106725 0.05925,-0.138403 0.02629,-0.147888 -0.02307,-0.0066 -0.05448,-0.0037 -0.0698,0.0065 -0.03725,0.02481 -0.269947,0.06826 -0.514354,0.09603 -0.43253,0.04914 -0.70208,-0.03901 -0.897207,-0.29342 -0.09855,-0.128489 -0.0908,-0.291767 0.02626,-0.553577 0.12644,-0.282774 0.127476,-0.278417 -0.0563,-0.236713 -0.08347,0.01894 -0.179143,0.04555 -0.212615,0.05914 -0.03347,0.01359 -0.171106,0.03037 -0.305855,0.0373 -0.191647,0.0099 -0.270249,0.0036 -0.360954,-0.02867 -0.208381,-0.07416 -0.379065,-0.225203 -0.440519,-0.389822 -0.04671,-0.125123 -0.0051,-0.338071 0.09481,-0.48572 0.03122,-0.04613 0.06653,-0.113518 0.07846,-0.14976 0.0269,-0.08171 -0.01922,-0.08523 -0.268174,-0.02048 -0.254985,0.06631 -0.485392,0.08362 -0.670319,0.05035 -0.08758,-0.01576 -0.159245,-0.04016 -0.159245,-0.05422 0,-0.01406 -0.0076,-0.01988 -0.01683,-0.01294 -0.0093,0.0069 -0.06452,-0.02091 -0.122813,-0.0619 -0.09336,-0.06565 -0.139057,-0.117895 -0.248302,-0.283866 -0.03599,-0.05468 -0.03543,-0.409545 7.03e-4,-0.438823 0.01545,-0.01252 0.0458,-0.06589 0.06746,-0.11861 0.160415,-0.390566 0.627994,-0.72883 1.111519,-0.804115 0.472667,-0.07359 0.967445,0.09874 1.173546,0.408747 0.07842,0.11796 0.0876,0.157548 0.08749,0.377257 l -1.27e-4,0.245467 0.168255,-0.01483 c 0.167689,-0.01478 0.654498,0.04709 0.654498,0.08318 0,0.0093 0.05032,0.0372 0.111821,0.06204 0.103406,0.04177 0.126774,0.06563 0.114813,0.117274 -0.0025,0.01086 0.0081,0.01388 0.0236,0.0067 0.01549,-0.0072 0.06944,0.04323 0.119875,0.112037 0.07768,0.105971 0.09181,0.152569 0.09243,0.304808 3.99e-4,0.09884 -0.0065,0.212061 -0.01525,0.251597 l -0.01597,0.07189 0.283535,0.0037 c 0.422826,0.0055 0.544309,0.0387 0.770778,0.210386 0.135659,0.102846 0.208036,0.181288 0.247604,0.26835 0.06845,0.150609 0.07249,0.404467 0.0083,0.519733 -0.0262,0.04703 -0.03505,0.09134 -0.01967,0.09847 0.01538,0.0071 0.110626,0.0015 0.211659,-0.01251 0.36271,-0.05029 0.686341,0.02216 0.926365,0.207389 0.320391,0.247244 0.381753,0.617285 0.15906,0.959207 -0.09371,0.143884 -0.330875,0.328678 -0.510923,0.398104 -0.07029,0.0271 -0.134984,0.05708 -0.14377,0.06662 -0.02884,0.03132 -0.523654,0.137994 -0.686901,0.148089 -0.08786,0.0054 -0.217066,0.0059 -0.287125,0.0011 z m 3.598231,-0.245986 c -0.168654,-0.0257 -0.299509,-0.09778 -0.601633,-0.331396 l -0.229824,-0.177712 -0.01183,-0.278021 c -0.0065,-0.152911 -0.0211,-0.299586 -0.03243,-0.325944 -0.01133,-0.02636 -0.04056,-0.101837 -0.06495,-0.167732 -0.04928,-0.133124 -0.225034,-0.383723 -0.316105,-0.450709 -0.03242,-0.02385 -0.04914,-0.0562 -0.03715,-0.07189 0.01199,-0.01569 0.01031,-0.02073 -0.0037,-0.0112 -0.01405,0.0095 -0.101906,-0.03502 -0.195226,-0.09898 -0.169234,-0.116003 -0.519781,-0.275954 -0.664465,-0.303189 -0.06067,-0.01142 -0.09763,-0.05572 -0.180304,-0.216114 -0.0572,-0.110963 -0.112808,-0.201751 -0.123576,-0.201751 -0.01077,0 -0.03845,-0.03197 -0.06151,-0.07104 -0.05567,-0.09432 -0.453379,-0.393729 -0.577919,-0.435074 -0.05425,-0.01801 -0.09863,-0.04153 -0.09863,-0.05227 0,-0.01074 -0.01438,-0.01286 -0.03195,-0.0047 -0.01757,0.0081 -0.03195,0.0055 -0.03195,-0.0058 0,-0.01135 -0.06982,-0.03947 -0.155154,-0.06249 -0.137734,-0.03715 -0.159598,-0.05297 -0.194736,-0.140929 -0.03995,-0.100018 -0.168354,-0.277216 -0.303499,-0.418845 -0.125515,-0.131538 -0.43797,-0.315695 -0.693739,-0.408881 -0.222871,-0.0812 -0.250881,-0.09948 -0.311502,-0.203269 -0.03664,-0.06273 -0.06661,-0.123517 -0.06661,-0.135091 0,-0.04164 -0.235619,-0.2803 -0.384655,-0.389625 -0.172795,-0.126755 -0.529015,-0.307723 -0.605723,-0.307723 -0.02813,0 -0.06572,-0.01093 -0.08352,-0.02428 -0.05681,-0.04261 -0.46653,-0.09469 -0.747184,-0.09498 -0.475634,-4.86e-4 -0.820253,0.0677 -1.239845,0.245298 -0.145819,0.06172 -0.493615,0.296018 -0.598445,0.403149 -0.09753,0.09966 -0.268092,0.330176 -0.287672,0.388769 -0.01355,0.04054 -0.03867,0.06267 -0.06315,0.05562 -0.02236,-0.0064 -0.103254,-0.02514 -0.179764,-0.04157 -0.07651,-0.01643 -0.155709,-0.03923 -0.175998,-0.05067 -0.02029,-0.01144 -0.128117,-0.04151 -0.239617,-0.06682 -0.111499,-0.02531 -0.25664,-0.05983 -0.322535,-0.07671 L 10,31.087315 10,28.5173 c 0,-1.413509 0.0046,-2.570016 0.01028,-2.570016 0.02467,0 0.333842,0.07934 0.421027,0.108043 0.05272,0.01736 0.181935,0.05018 0.287155,0.07294 0.10522,0.02276 0.213047,0.05026 0.239617,0.06111 0.09684,0.03953 1.01366,0.26773 1.262365,0.314204 0.140575,0.02627 0.299743,0.05741 0.353706,0.06921 0.126477,0.02766 0.509306,0.02777 0.581233,1.68e-4 0.03051,-0.01171 0.135111,-0.03223 0.232442,-0.0456 0.166615,-0.02289 0.403647,-0.109944 0.733578,-0.269422 0.191852,-0.09274 0.653549,-0.292379 0.942492,-0.407546 0.34039,-0.135673 0.418332,-0.163968 0.455271,-0.165276 0.02196,-7.79e-4 0.03994,-0.01147 0.03994,-0.02376 0,-0.01229 0.03235,-0.02978 0.07188,-0.03887 0.03954,-0.0091 0.176434,-0.05295 0.304215,-0.09746 0.127782,-0.04451 0.242798,-0.081 0.255591,-0.08108 0.01279,-7.2e-5 0.06108,-0.01495 0.107304,-0.03304 0.04622,-0.01809 0.182804,-0.05654 0.303514,-0.08545 0.12071,-0.02891 0.248226,-0.0626 0.28337,-0.07488 0.197324,-0.06894 0.827484,-0.09262 1.184228,-0.04449 0.18238,0.0246 0.68379,0.158504 0.71673,0.191403 0.0088,0.0088 0.05911,0.03266 0.111822,0.05307 0.05272,0.02042 0.153354,0.07603 0.223642,0.123595 l 0.127795,0.08647 -0.07655,0.04149 c -0.0421,0.02282 -0.214629,0.09791 -0.383387,0.166864 -0.40524,0.165584 -0.624042,0.256829 -0.818016,0.341128 -0.08786,0.03818 -0.195687,0.08338 -0.239617,0.100438 -0.04393,0.01706 -0.15466,0.0663 -0.246069,0.109433 -0.09141,0.04313 -0.171875,0.07842 -0.178815,0.07842 -0.01211,0 -0.515732,0.244794 -0.581505,0.282653 -0.01757,0.01011 -0.08434,0.04248 -0.148372,0.07193 -0.183112,0.08421 -0.512574,0.365473 -0.625568,0.534058 -0.182974,0.272995 -0.238542,0.456762 -0.224183,0.741394 0.0071,0.140134 0.03745,0.314448 0.06879,0.394728 0.06092,0.156024 0.210045,0.371887 0.322795,0.467253 0.03895,0.03295 0.08353,0.07729 0.09906,0.09853 0.04625,0.06326 0.420624,0.285123 0.548531,0.325064 0.06528,0.02038 0.126498,0.04636 0.136047,0.05772 0.02957,0.0352 0.629552,0.141681 0.798321,0.141681 0.08796,0 0.269789,-0.02208 0.404058,-0.04907 0.238367,-0.04791 0.336662,-0.07674 0.729141,-0.213894 0.105431,-0.03684 0.270767,-0.09396 0.367412,-0.12692 0.09665,-0.03296 0.283546,-0.09742 0.415335,-0.143233 0.13179,-0.04582 0.271965,-0.0909 0.311502,-0.100191 0.03954,-0.0093 0.07189,-0.02695 0.07189,-0.03924 0,-0.01229 0.02516,-0.02248 0.05591,-0.02265 0.03075,-1.67e-4 0.136656,-0.03102 0.235347,-0.06857 0.367102,-0.139657 0.639613,-0.204049 0.864686,-0.204319 0.117398,-1.44e-4 0.246791,0.01273 0.28754,0.02859 0.04075,0.01587 0.126409,0.04235 0.190357,0.05885 0.06395,0.0165 0.164587,0.05647 0.223642,0.08883 0.05906,0.03236 1.008891,0.73532 2.110747,1.562141 1.97572,1.482559 2.004109,1.505208 2.056663,1.640792 0.05987,0.15446 0.04569,0.371973 -0.03156,0.48401 -0.07719,0.111952 -0.292567,0.260709 -0.422648,0.291915 -0.06787,0.01628 -0.137056,0.03908 -0.153749,0.05067 -0.03755,0.02606 -0.36901,0.02816 -0.36901,0.0023 0,-0.0103 -0.06466,-0.03305 -0.14369,-0.05055 -0.116839,-0.02587 -0.225798,-0.09218 -0.583067,-0.354835 -0.782397,-0.575191 -1.192504,-0.838448 -1.258501,-0.807857 -0.07967,0.03693 0.05188,0.226206 0.288354,0.414875 0.04592,0.03663 0.11224,0.09596 0.147384,0.131827 0.03514,0.03587 0.128594,0.116987 0.207667,0.180261 0.07907,0.06327 0.251598,0.205478 0.383387,0.316009 0.131789,0.110531 0.264857,0.221938 0.295708,0.24757 0.03085,0.02563 0.07327,0.08225 0.09428,0.125808 0.021,0.04356 0.04968,0.0792 0.06372,0.0792 0.01404,0 0.02553,0.07346 0.02553,0.163247 0,0.247854 -0.139277,0.439199 -0.415335,0.570606 -0.129901,0.06184 -0.170845,0.06846 -0.424434,0.06865 -0.214919,1.67e-4 -0.287772,-0.0082 -0.311012,-0.03573 -0.01669,-0.01977 -0.03057,-0.02712 -0.03084,-0.01634 -6.49e-4,0.02595 -0.190811,-0.07452 -0.273072,-0.144273 -0.0357,-0.03027 -0.07555,-0.05504 -0.08854,-0.05504 -0.013,0 -0.09425,-0.05122 -0.18057,-0.113818 -0.08632,-0.0626 -0.197431,-0.140369 -0.246919,-0.172821 -0.04949,-0.03245 -0.205052,-0.134888 -0.345697,-0.227636 -0.873045,-0.575728 -1.206104,-0.740513 -1.152044,-0.56999 0.01149,0.03624 0.04899,0.08069 0.08334,0.09877 0.03434,0.01808 0.06245,0.04287 0.06245,0.05508 0,0.02381 0.493384,0.396307 0.832176,0.628286 0.428086,0.29312 0.573088,0.401941 0.627311,0.470784 0.03074,0.03903 0.06615,0.07096 0.07868,0.07096 0.04493,0 0.09726,0.271535 0.07643,0.396583 -0.02576,0.154638 -0.202696,0.356535 -0.368592,0.420592 -0.0615,0.02375 -0.133033,0.05717 -0.158959,0.07426 -0.03033,0.02 -0.138549,0.031 -0.303515,0.03085 -0.230191,-2.16e-4 -0.271721,-0.0076 -0.40662,-0.07235 -0.08263,-0.03967 -0.463624,-0.302555 -0.846645,-0.584198 -0.74997,-0.551467 -0.814414,-0.596402 -0.936018,-0.652656 -0.123356,-0.05706 -0.167675,-0.03313 -0.114703,0.06196 0.04152,0.07453 0.07674,0.111777 0.226524,0.239528 0.03514,0.02998 0.114217,0.09951 0.175719,0.154527 0.0615,0.05502 0.200822,0.171869 0.3096,0.259677 0.108779,0.08781 0.190378,0.168633 0.181332,0.179611 -0.009,0.01098 -0.0046,0.01716 0.0099,0.01373 0.03749,-0.0089 0.263006,0.171137 0.32152,0.256641 0.02706,0.03954 0.0651,0.07955 0.08455,0.08892 0.02142,0.01032 0.0354,0.100052 0.03548,0.227635 9.6e-5,0.189597 -0.0087,0.220769 -0.0883,0.312623 -0.225154,0.259802 -0.566444,0.373921 -0.945523,0.316158 z m 7.306262,-4.457391 c -0.0646,-0.01145 -0.203927,-0.05481 -0.309613,-0.09636 -0.206118,-0.08103 -0.211241,-0.08471 -3.071333,-2.20166 -0.817092,-0.604788 -1.536588,-1.125478 -1.598878,-1.15709 -0.265772,-0.134876 -0.643832,-0.168161 -1.035205,-0.09114 -0.13964,0.02748 -0.261845,0.05898 -0.271566,0.07001 -0.0097,0.01103 -0.05362,0.02687 -0.09755,0.03522 -0.04393,0.0083 -0.130191,0.03874 -0.191693,0.06755 -0.0615,0.02881 -0.241214,0.100852 -0.399361,0.160102 -0.158147,0.05925 -0.309105,0.120496 -0.335463,0.1361 -0.02636,0.0156 -0.109869,0.04638 -0.185581,0.0684 -0.07571,0.02202 -0.154784,0.05074 -0.175718,0.06384 -0.09062,0.0567 -1.458673,0.559188 -1.603557,0.588988 -0.499505,0.102736 -0.997213,-0.03693 -1.289768,-0.361943 -0.13718,-0.152398 -0.174375,-0.244479 -0.1728,-0.427787 0.002,-0.231447 0.108758,-0.40662 0.336302,-0.55176 0.07472,-0.04766 0.16101,-0.102848 0.191761,-0.122643 0.03075,-0.01979 0.06379,-0.03599 0.07342,-0.03599 0.0096,0 0.09617,-0.03774 0.192313,-0.08387 0.09614,-0.04613 0.179669,-0.08387 0.185614,-0.08387 0.0156,0 0.70061,-0.306191 0.739197,-0.330414 0.01782,-0.01119 0.159754,-0.07351 0.31541,-0.138492 0.155657,-0.06499 0.349545,-0.147737 0.430862,-0.183892 0.08132,-0.03616 0.226922,-0.09546 0.323567,-0.13179 0.09665,-0.03633 0.182908,-0.07237 0.191694,-0.08009 0.0088,-0.0077 0.138178,-0.06475 0.287539,-0.126738 0.149361,-0.06198 0.293131,-0.122557 0.319489,-0.134608 0.02636,-0.01205 0.184505,-0.07678 0.351438,-0.143849 0.166933,-0.06707 0.32508,-0.131799 0.351438,-0.143852 0.02636,-0.01205 0.227635,-0.09483 0.447284,-0.183955 0.219649,-0.08912 0.418359,-0.175849 0.441579,-0.192724 0.02322,-0.01688 0.06075,-0.03068 0.0834,-0.03068 0.02265,0 0.09391,-0.02684 0.158355,-0.05964 0.06444,-0.0328 0.19225,-0.07758 0.284012,-0.0995 0.09176,-0.02193 0.184871,-0.05036 0.20691,-0.06319 0.05031,-0.02928 0.512757,-0.02681 0.56224,0.003 0.02017,0.01215 0.08136,0.02925 0.135994,0.038 0.165478,0.02651 0.824551,0.361404 0.791106,0.40199 -0.0091,0.01107 -0.0044,0.01717 0.01043,0.01355 0.03087,-0.0075 0.243355,0.118092 0.568787,0.336249 0.03514,0.02356 0.142505,0.09084 0.238581,0.149521 0.09607,0.05868 0.225468,0.140854 0.28754,0.182614 0.06207,0.04176 0.155835,0.101065 0.208364,0.13179 0.05253,0.03072 0.122019,0.07383 0.15442,0.0958 0.610295,0.413719 0.75034,0.475379 1.1079,0.487786 0.168144,0.0058 0.90486,-0.0874 1.038338,-0.131409 0.03514,-0.01159 0.20048,-0.03879 0.367412,-0.06045 0.166933,-0.02166 0.368211,-0.05402 0.447285,-0.07191 0.07907,-0.01789 0.294728,-0.05521 0.479233,-0.08292 0.486901,-0.07314 0.931715,-0.141964 1.014541,-0.156971 l 0.07205,-0.01305 -0.0082,2.245676 -0.0082,2.245676 -0.207668,0.03255 c -0.114217,0.0179 -0.414629,0.05857 -0.667582,0.09036 -0.252953,0.0318 -0.50455,0.06815 -0.559105,0.08078 -0.277481,0.06425 -0.963107,0.0919 -1.207064,0.04867 z"
         id="path3068"
         inkscape:connector-curvature="0" />
    </g>
    <text
       xml:space="preserve"
       style="font-size:6.60455418000000005px;font-style:normal;font-weight:normal;line-height:125%;letter-spacing:0px;word-spacing:0px;fill:none;fill-opacity:1;stroke:#000000;font-family:Sans;stroke-width:0.30000001;stroke-miterlimit:4;stroke-dasharray:none;stroke-opacity:1;opacity:1"
       x="3.7487898"
       y="21.108643"
       id="text3086"
       sodipodi:linespacing="125%"
       transform="scale(1.0080437,0.99202045)"><tspan
         sodipodi:role="line"
         id="tspan3088"
         x="3.7487898"
         y="21.108643"
         style="fill:none;stroke-width:0.30000001;stroke-miterlimit:4;stroke-dasharray:none;fill-opacity:1;stroke:#000000;stroke-opacity:1">Wer<tspan
   style="font-style:italic;-inkscape-font-specification:Sans Italic;fill:none;stroke-width:0.30000001;stroke-miterlimit:4;stroke-dasharray:none;fill-opacity:1;stroke:#000000;stroke-opacity:1"
   id="tspan3090">ff</tspan><tspan
   style="font-size:4.95341586999999972px;fill:none;stroke-width:0.30000001;stroke-miterlimit:4;stroke-dasharray:none;fill-opacity:1;stroke:#000000;stroke-opacity:1"
   id="tspan3092">ospitality</tspan></tspan></text>
  </g>
</svg>
